<?xml version="1.0" encoding="utf-8"?>
<svg xmlns="http://www.w3.org/2000/svg" viewBox="0 0 121 121">
  <defs>
    <style>.cls-1{fill:#e4e8f8;}.cls-2,.cls-3,.cls-4{fill:none;}.cls-2,.cls-4{stroke:#204ecf;}.cls-2{stroke-linejoin:round;}.cls-3{stroke:#114ad6;}.cls-3,.cls-4{stroke-miterlimit:10;}</style>
  </defs>
  <title>Asset 362</title>
  <g data-name="Layer 2" id="Layer_2">
    <g id="Stuff">
      <rect class="cls-1" height="6.41" width="31.17" x="6.34" y="53.35"/>
      <path class="cls-2" d="M109.73,47.22V29.35A18.06,18.06,0,0,0,91.67,11.29H81.16"/>
      <polygon class="cls-3" points="72.02 11.29 81.16 17.15 81.16 11.29 81.16 5.44 72.02 11.29"/>
      <path class="cls-2" d="M11.27,75.17V91.65a18.05,18.05,0,0,0,18.06,18.06h.51"/>
      <polygon class="cls-3" points="38.98 109.71 29.84 103.85 29.84 109.71 29.84 115.56 38.98 109.71"/>
      <path class="cls-1" d="M47.83,16.18l1.59,5.49s10.33-5.49,10.08-5.49H47.83"/>
      <path class="cls-1" d="M117.59,87.62l-1-.65,1-.65c3.86-2.58,3.86-6.8,0-9.39l-1-.65L85.71,96.91a13.3,13.3,0,0,1-14.76,0L40,76.28l-1,.65c-3.87,2.59-3.87,6.81,0,9.39L40,87l-1,.65c-3.87,2.58-3.87,6.81,0,9.39l32.24,21.55a13.7,13.7,0,0,0,14,0L117.59,97C121.45,94.43,121.45,90.2,117.59,87.62Z"/>
      <path class="cls-2" d="M117.59,66.25,85.35,44.7a13.66,13.66,0,0,0-14,0L39.07,66.25c-3.88,2.59-3.88,6.79,0,9.38L71.31,97.18a13.66,13.66,0,0,0,14,0l32.24-21.55C121.47,73,121.47,68.84,117.59,66.25Z"/>
      <path class="cls-2" d="M40,76.28l-1,.65c-3.88,2.6-3.88,6.8,0,9.39l32.24,21.55a13.66,13.66,0,0,0,14,0l32.24-21.55c3.88-2.59,3.88-6.79,0-9.39l-1-.65"/>
      <path class="cls-2" d="M40,87l-1,.65c-3.88,2.59-3.88,6.8,0,9.39l32.24,21.55a13.66,13.66,0,0,0,14,0L117.59,97c3.88-2.59,3.88-6.8,0-9.39l-1-.65"/>
      <path class="cls-1" d="M96.47,67.43c-3.4-2.27-8.86-2.67-12.3-1l-.39.17c1.81-2.07,1.66-5.05-1.75-7.33-4.07-2.72-10-2.84-15,.5l-12.56,8.4,28,18.71,13.48-9C101.09,74.44,100.88,70.37,96.47,67.43Zm-34.13.42,7.56-5a7.64,7.64,0,0,1,8.48-.17c2.31,1.54,2.52,3.76-.3,5.64l-7.56,5Zm29,8.19L83,81.63l-8.73-5.84,8.35-5.58a8.2,8.2,0,0,1,9-.26C94.33,71.78,94.25,74.08,91.31,76Z"/>
      <path class="cls-2" d="M96.47,67.43c-3.4-2.27-8.86-2.67-12.3-1l-.39.17c1.81-2.07,1.66-5.05-1.75-7.33-4.07-2.72-10-2.84-15,.5l-12.56,8.4,28,18.71,13.48-9C101.09,74.44,100.88,70.37,96.47,67.43Zm-34.13.42,7.56-5a7.64,7.64,0,0,1,8.48-.17c2.31,1.54,2.52,3.76-.3,5.64l-7.56,5Zm29,8.19L83,81.63l-8.73-5.84,8.35-5.58a8.2,8.2,0,0,1,9-.26C94.33,71.78,94.25,74.08,91.31,76Z"/>
      <polyline class="cls-4" points="59.5 47.22 59.5 16.18 43.82 0.5 6.34 0.54 6.34 29.25"/>
      <polyline class="cls-4" points="6.34 53.35 6.34 66.17 39.06 66.17"/>
      <polyline class="cls-4" points="43.82 0.5 43.82 16.18 59.5 16.18"/>
      <rect class="cls-4" height="21.19" width="43.32" x="0.5" y="32.16"/>
      <path class="cls-4" d="M6.82,48.07V37.44h4.66a3.22,3.22,0,0,1,3.22,3.21h0a3.21,3.21,0,0,1-3.22,3.21H6.82"/>
      <path class="cls-4" d="M25.32,40.65V40.1a2.66,2.66,0,0,0-2.66-2.66H19.73a2.66,2.66,0,0,0-2.66,2.66h0a2.66,2.66,0,0,0,2.66,2.65h2.93a2.66,2.66,0,0,1,2.66,2.66h0a2.66,2.66,0,0,1-2.66,2.66H19.73a2.66,2.66,0,0,1-2.66-2.66h0"/>
      <path class="cls-4" d="M28.64,37.44H33a4.49,4.49,0,0,1,4.49,4.49v1.65A4.49,4.49,0,0,1,33,48.07H28.64a0,0,0,0,1,0,0V37.44A0,0,0,0,1,28.64,37.44Z"/>
    </g>
  </g>
</svg>