<?xml version="1.0" encoding="utf-8"?>
<svg xmlns="http://www.w3.org/2000/svg" viewBox="0 0 121.01 121">
  <defs>
    <style>.cls-1{fill:#e4e8f8;}.cls-2,.cls-3,.cls-4{fill:none;}.cls-2,.cls-4{stroke:#204ecf;}.cls-2,.cls-3{stroke-miterlimit:10;}.cls-3{stroke:#2453cb;}.cls-4{stroke-linejoin:round;}</style>
  </defs>
  <title>Asset 365</title>
  <g data-name="Layer 2" id="Layer_2">
    <g id="Stuff">
      <path class="cls-1" d="M34.36,82.89a35,35,0,1,1,52.15,0H96.89a43.3,43.3,0,1,0-72.91,0Z"/>
      <polyline class="cls-2" points="52.59 107.61 46.67 101.69 52.59 95.78"/>
      <polyline class="cls-2" points="68.42 107.61 74.33 101.69 68.42 95.78"/>
      <line class="cls-2" x1="56.59" x2="64.41" y1="112.9" y2="90.49"/>
      <circle class="cls-3" cx="60.5" cy="59.57" r="5.13"/>
      <path class="cls-3" d="M60.5,49.32a52.61,52.61,0,0,0-18.59,3c-4.95,1.93-7.68,4.5-7.68,7.23s2.73,5.3,7.68,7.23a52.61,52.61,0,0,0,18.59,3,52.67,52.67,0,0,0,18.6-3c5-1.93,7.67-4.5,7.67-7.23s-2.72-5.29-7.67-7.23A52.67,52.67,0,0,0,60.5,49.32Z"/>
      <path class="cls-4" d="M108.31,79A50.63,50.63,0,0,0,111,69.27L120.22,66a57.21,57.21,0,0,0-.12-12.53L111,50.28a55.21,55.21,0,0,0-4.08-12.64l5.54-7.93a68.88,68.88,0,0,0-7.2-10.24l-9.44,2.77a62.45,62.45,0,0,0-10.68-8L85,4.48A70.64,70.64,0,0,0,73.15.5L67.27,8.26a51.14,51.14,0,0,0-13.36.11L48,.5A49.15,49.15,0,0,0,36.14,4.33L36,14.16A54.24,54.24,0,0,0,25,21.87L15.74,19A55.15,55.15,0,0,0,8.42,29.18l5.63,8a44.89,44.89,0,0,0-4,12.74L.78,53.14A57.13,57.13,0,0,0,.91,65.66L10,68.86A54.88,54.88,0,0,0,13,79"/>
      <path class="cls-4" d="M31.32,79a35,35,0,1,1,58.22,0"/>
      <path class="cls-3" d="M76,79a17.13,17.13,0,0,0,.11-6.94,52.81,52.81,0,0,0-6.68-17.61,53,53,0,0,0-11.91-14.6c-2.95-2.36-5.66-3.6-7.83-3.6a4.45,4.45,0,0,0-2.27.57c-2.36,1.36-3.22,5-2.43,10.26a52.85,52.85,0,0,0,6.69,17.61A53.54,53.54,0,0,0,63.18,79"/>
      <path class="cls-3" d="M57.83,79A53.74,53.74,0,0,0,69.38,64.69a52.81,52.81,0,0,0,6.68-17.61c.8-5.25-.06-8.9-2.42-10.26a4.48,4.48,0,0,0-2.27-.57c-2.18,0-4.88,1.24-7.83,3.6a52.63,52.63,0,0,0-11.91,14.6,52.85,52.85,0,0,0-6.69,17.61A17.11,17.11,0,0,0,45.06,79"/>
      <rect class="cls-2" height="37.61" rx="4.2" width="120" x="0.5" y="82.89"/>
    </g>
  </g>
</svg>