<?xml version="1.0" encoding="utf-8"?>
<svg xmlns="http://www.w3.org/2000/svg" viewBox="0 0 121 121">
  <defs>
    <style>.cls-1{fill:#e4e8f8;}.cls-2{fill:none;stroke:#204ecf;stroke-linejoin:round;}</style>
  </defs>
  <title>Asset 367</title>
  <g data-name="Layer 2" id="Layer_2">
    <g id="Icons">
      <path class="cls-1" d="M110.28,78.58V64.3a3.14,3.14,0,0,1-3.14,3.14h-30A3.14,3.14,0,0,1,74,64.3v-50H68.58V25.38H10.08V54.51h58.5V78.58H.5v6.3h120v-6.3Z"/>
      <circle class="cls-1" cx="92.14" cy="46.59" r="5"/>
      <circle class="cls-1" cx="15.09" cy="68.81" r="5"/>
      <rect class="cls-1" height="24.72" width="29.25" x="77.52" y="11.45"/>
      <rect class="cls-1" height="9.82" width="23.17" x="48.92" y="96.18"/>
      <path class="cls-2" d="M110.28,6.5a2.5,2.5,0,0,0-2.5-2.5H76.5A2.5,2.5,0,0,0,74,6.5"/>
      <path class="cls-2" d="M92.14,75.56h14.39a3.75,3.75,0,0,0,3.75-3.75V4.25A3.75,3.75,0,0,0,106.53.5H77.75A3.75,3.75,0,0,0,74,4.25V71.81a3.75,3.75,0,0,0,3.75,3.75H92.14"/>
      <path class="cls-2" d="M110.28,68.06a2.5,2.5,0,0,1-2.5,2.5H76.5a2.5,2.5,0,0,1-2.5-2.5"/>
      <line class="cls-2" x1="77.52" x2="106.77" y1="56.59" y2="56.59"/>
      <line class="cls-2" x1="77.52" x2="106.77" y1="60.44" y2="60.44"/>
      <line class="cls-2" x1="86.03" x2="98.25" y1="64.3" y2="64.3"/>
      <line class="cls-2" x1="24.92" x2="68.58" y1="63.81" y2="63.81"/>
      <line class="cls-2" x1="24.92" x2="68.58" y1="68.81" y2="68.81"/>
      <line class="cls-2" x1="24.92" x2="34.75" y1="73.82" y2="73.82"/>
      <path class="cls-2" d="M110.28,14.32h6.22a4,4,0,0,1,4,4V84.87"/>
      <path class="cls-2" d="M.5,84.87V18.32a4,4,0,0,1,4-4H68.58"/>
      <line class="cls-2" x1="72.08" x2="72.08" y1="96.18" y2="112.33"/>
      <line class="cls-2" x1="48.92" x2="48.92" y1="112.33" y2="96.18"/>
      <rect class="cls-2" height="3.17" width="59.5" x="30.75" y="117.33"/>
      <path class="cls-2" d="M120.5,84.87v7.31a4,4,0,0,1-4,4H4.5a4,4,0,0,1-4-4v-7.3Z"/>
    </g>
  </g>
</svg>